<svg width="1440" height="281" fill="none" xmlns="http://www.w3.org/2000/svg"><path d="M1439.28 161.491c-14.32-1.385-25.78 10.336-32.81 21.391-7.49 11.772-13.18 26.062-25.72 33.532-12.8 7.619-29.27 5.689-42.11-.78-3.38-1.702-6.43-4.011-9.86-5.59-3.2-1.469-6.63-1.967-10.06-1.029-2.35.642-4.51 1.844-6.41 3.364.18-6.493.15-12.992-.04-19.485-.5-18.051-2.16-36.043-3.6-54.038-.71-8.929-1.37-17.868-1.81-26.816-.41-8.283-1.18-17.006 1.14-25.084 2.17-7.572 7.72-13.112 12.14-19.407 4.43-6.313 6.7-13.582 6.85-21.27.16-7.93-1.84-15.7-4.95-22.95-1.63-3.798-3.56-7.464-5.65-11.029-1.87-3.198-3.75-7.01-6.7-9.379-5.58-4.484-13.51-1.658-17.98 2.962-2.56 2.646-4.44 5.857-6.18 9.076-1.97 3.663-3.9 7.363-5.63 11.149-5.97 13.045-9.61 29.448-.87 42.224 1.98 2.886 4.57 5.099 7.17 7.395 2.69 2.368 5.21 4.94 6.05 8.531.47 2.026.48 4.13.5 6.2.02 2.208.01 4.418-.02 6.63-.06 4.496-.21 8.99-.44 13.48-.65 13.115-1.87 26.187-2.96 39.269-2.71-2.653-5.76-4.979-9.06-6.964-5.88-3.546-12.34-6.064-18.85-8.237 1.09-7.98 1.08-16.097 1.38-24.131.64-17.095 1.46-34.185 2.03-51.283.55-16.535.85-33.082.54-49.625.53-3.133.42-8.882-3.77-9.329-2.51-.267-3.91 1.93-5.28 3.627-1.94 2.383-3.94 4.715-5.8 7.155-3.39 4.422-6.79 9.116-9.29 14.104-1.39 2.767-2.45 5.684-3.42 8.618-1.03 3.112-2.14 6.238-2.93 9.422-1.57 6.373-1.82 12.976-2.08 19.505-.25 6.226-.48 12.458-.41 18.69.13 12.192 1.34 24.629 5.85 36.065 2.04 5.167 4.55 11.211 9.67 14.034.72.396 1.46.735 2.22 1.041-.68.716-1.22 1.6-1.62 2.532-1.47 3.478-2.09 7.45-2.37 11.194-.15 1.999-.16 4.01-.02 6.01.1 1.472.16 3.063.82 4.412.52 1.061 1.48 1.889 2.73 1.856 1.5-.039 2.63-1.295 3.5-2.368 2.99-3.675 5-7.968 6.35-12.47.83 16.16 1.61 32.323 2.42 48.483.22 4.256.43 8.51.64 12.767.2 4.052.64 8.171.5 12.23-.13 3.69-1.48 7.044-4.6 9.2-2.69 1.858-6.04 2.341-9.13 1.241-7.87-2.806-7.48-12.186-7.64-19.065-.2-8.414.31-16.82.52-25.228.34-14.311-.32-29.236-6.67-42.362-3.6-7.428-9.12-13.765-15.87-18.382.18-3.902.18-7.814-.03-11.723-.69-13.322-3.55-26.541-8.54-38.927-4.94-12.272-11.92-23.726-20.83-33.55-8.84-9.742-19.56-17.703-31.39-23.5a110.65 110.65 0 00-37.66-10.753c-12.99-1.295-26.27-.198-38.79 3.543-12.65 3.78-24.36 10.264-34.66 18.447-10.47 8.325-19.47 18.4-27.06 29.371a166.791 166.791 0 00-10.51 17.44c-3.33 6.364-6.4 12.932-8.61 19.772-2.242 6.988-3.588 14.449-2.582 21.784.889 6.466 3.792 14.143 9.992 17.302 11.2 5.711 24.48-7.026 34.99.923 2.89 2.186 4.9 5.303 7 8.196 2.15 2.973 4.38 5.899 6.69 8.756 4.63 5.71 9.63 11.136 15.15 16.001 11.1 9.766 24.47 17.2 39.26 19.422 7.15 1.076 14.49.917 21.52-.828 6.77-1.678 13.14-4.805 18.75-8.912 10.93-8.012 18.91-19.499 23.02-32.341 1.91-5.962 3-12.188 3.26-18.45 2.06-2.401 4.44-4.545 7.23-6.079 3.45-1.904 7.31-2.563 11.22-2.359 7.15.374 14.25 2.958 20.28 6.729.25.159.5.324.76.489-1.36 25.153-10.83 50.069-27.91 68.789-17.53 19.209-42.29 31.888-68.25 34.556-25.73 2.647-52.22-4.748-73.36-19.43-10.21-7.089-19.17-15.965-26.1-26.277a301.282 301.282 0 01-13.33-29.545c-.98-2.545-1.93-5.105-2.84-7.676-.74-2.057-1.37-4.257-2.68-6.038-1.29-1.756-3.13-2.814-5.312-2.988-2.249-.18-4.517.548-6.517 1.517a26.85 26.85 0 00-3.994 2.389c-.171-6.092-.37-12.183-.581-18.271-.217-6.22-.446-12.437-.681-18.657l-.349-9.325c-.109-2.914-.334-5.855-.214-8.768.117-2.806.795-5.42 2.59-7.635 1.572-1.943 3.518-3.55 4.973-5.597 2.864-4.023 3.731-9.05 3.909-13.876.072-1.975.03-3.95-.048-5.923v-.01c.412-6.339.554-12.703.56-19.055.003-3.102-.033-6.202-.13-9.301-.117-3.79-.292-7.584-.111-11.376.045-.96.114-1.916.211-2.87.084-.808.202-1.615.244-2.427.084-1.583-.202-3.235-1.307-4.446-1.042-1.142-2.886-1.49-4.181-.554-1.132.818-1.449 2.212-1.53 3.528-.111 1.796-.039 3.618-.051 5.417-.012 1.894-.021 3.792-.033 5.686-.024 3.84-.045 7.683-.069 11.523-.024 3.84-.046 7.683-.069 11.523-.01 1.753.126 3.594-.193 5.326-.256 1.388-.931 2.815-2.319 3.394-1.29.536-2.497-.201-3.148-1.322-.843-1.451-.75-3.285-.81-4.904-.142-3.82-.277-7.641-.307-11.463a165.89 165.89 0 01.048-5.731c.051-1.898.181-3.787.268-5.684.042-.923.021-1.852-.157-2.764-.081-.416-.213-.818-.316-1.229a4.926 4.926 0 01-.12-1.31c.051-1.876.304-3.765.467-5.635.141-1.625.575-3.55-.799-4.787-1.084-.98-2.77-1.382-4.086-.645a3.12 3.12 0 00-1.371 1.6c-.304.777-.274 1.712-.28 2.534-.012 1.897.036 3.798.06 5.695.087 7.674.223 15.348.262 23.022.009 1.882-.03 3.765-.238 5.635a40.811 40.811 0 01-.409 2.761c-.145.798-.268 1.619-.518 2.39-.154.476-.407 1.03-.795 1.282-.172.111-.38.138-.633.051-.307-.108-.593-.32-.834-.536-.943-.837-1.413-2.009-1.663-3.217-.271-1.313-.28-2.674-.247-4.008.048-1.885.121-3.768.178-5.653.124-3.846.244-7.689.367-11.535.124-3.846.244-7.689.368-11.535.057-1.801.217-3.636.138-5.437-.072-1.655-.656-3.463-2.295-4.188-1.505-.665-3.045.051-3.942 1.328-1.03 1.466-.828 3.351-.639 5.027.425 3.762.585 7.55.555 11.337-.058 7.599-.853 15.165-1.693 22.71-.163 1.448-.163 3.138-.91 4.433-.34.588-.861 1.115-1.56 1.232-.566.093-1.048-.135-1.382-.527-.723-.849-.789-2.255-.859-3.358a350.773 350.773 0 01-.376-37.257c.039-.917.078-1.804-.274-2.67-.545-1.34-1.747-2.276-3.238-2.04-1.271.202-2.286 1.206-2.759 2.354-.65 1.58-.436 3.393-.391 5.057a604.452 604.452 0 01.217 17.332 592.267 592.267 0 01-.494 23.007c-.148 3.65-.518 7.359-.136 11.004.353 3.366 1.512 6.487 3.37 9.317 1.702 2.593 3.829 4.88 6.06 7.023.009.024.018.048.03.072 2.368 4.331 3.527 9.107 3.865 14.005.361 5.237-.007 10.518-.181 15.758l-1.13 34.068-1.135 34.215-1.129 34.067c-.088 2.647-.245 5.3-.245 7.95 0 1.978.175 4.059 1.091 5.848 2.165 4.236 7.779 3.927 11.469 2.051 4.159-2.117 6.34-6.382 6.822-10.867.548-5.092-1.115-10.072-2.651-14.856-3.301-10.287-5.933-21.073-4.933-31.951.789-8.579 4.186-17.197 10.4-23.328.325-.32.659-.632.999-.938.052 1.85.103 3.702.145 5.552.295 12.317.464 24.637.407 36.96a871.71 871.71 0 01-.536 27.623c-.094 2.563-.175 5.165-.88 7.65-.69 2.431-2.069 4.508-4.162 5.962-2.051 1.421-4.44 2.252-6.822 2.935a73.33 73.33 0 01-15.08 2.647 77.705 77.705 0 01-30.01-3.837 74.491 74.491 0 01-13.941-6.319c-4.841-2.83-9.271-6.262-13.533-9.883-8.162-6.934-15.989-14.212-24.832-20.309-8.373-5.773-17.628-10.614-27.675-12.668a54.783 54.783 0 00-7.283-.98.69.69 0 00-.196.012c-26.034 1.37-39.988 24.961-52.312 38.171-18.64 19.983-34.735 37.24-84.551 33.355-19.161-1.496-47.975-5.369-81.34-9.856-70.847-9.527-164.454-22.111-240.252-22.111-44.726 0-83.262 4.386-107.23 16.37-74.344 37.168-342.717 22.968-443.748 17.623-12.418-.656-22.225-1.175-29.131-1.469-36.19-1.537-154.726 7.342-269.358 15.927-89.099 6.675-173.258 12.979-212.592 13.93-88.048 2.125-195.786-13.777-252.457-29.824-12.694-3.594-34.536-5.416-64.931-5.416h-.642c-24.537.021-54.637 1.211-89.477 3.537-59.29 3.96-112.48 9.922-113.01 9.982l.2 1.787c.53-.06 53.68-6.02 112.94-9.977 78.36-5.23 131.763-4.604 154.433 1.814 29.184 8.261 70.606 16.166 113.644 21.682 30.965 3.969 76.012 8.408 122.608 8.405 5.566 0 11.156-.063 16.743-.198 39.382-.95 123.563-7.257 212.685-13.933 114.579-8.582 233.06-17.461 269.145-15.923 6.897.294 16.7.812 29.112 1.469 50.177 2.656 143.57 7.596 232.545 7.149 108.709-.545 180.071-8.942 212.11-24.961 64.092-32.041 233.997-9.2 346.428 5.917 33.392 4.491 62.23 8.367 81.443 9.865 50.683 3.957 67.058-13.597 86.017-33.923 12.231-13.112 27.432-36.949 51.183-37.908 10.451.704 20.269 4.724 29.121 10.135 9.15 5.596 17.273 12.596 25.302 19.649 4.322 3.798 8.693 7.566 13.43 10.845a74.786 74.786 0 0013.571 7.422c9.4 3.951 19.583 6.035 29.787 6.128a77.192 77.192 0 0015.213-1.373c2.548-.489 5.084-1.098 7.556-1.877 2.289-.722 4.563-1.646 6.485-3.102 4.135-3.136 4.978-8.1 5.201-12.974.277-6.13.395-12.272.491-18.408.196-12.437.133-24.88-.084-37.318-.1-5.731-.238-11.462-.395-17.194a26.817 26.817 0 012.458-1.711c1.897-1.167 3.976-2.192 6.207-2.5 2.34-.324 4.561.404 5.941 2.371 1.31 1.87 1.91 4.175 2.67 6.301a304.337 304.337 0 0012.5 29.712c1.13 2.317 2.28 4.616 3.46 6.903.02.054.05.111.09.168.03.063.07.114.11.159 7.31 10.851 16.82 20.111 27.67 27.443 11.03 7.452 23.44 12.929 36.37 16.13 12.98 3.211 26.52 4.11 39.78 2.341 13.17-1.753 25.96-6.019 37.61-12.353 11.7-6.358 22.28-14.826 30.9-24.955 9.57-11.244 16.54-24.508 20.89-38.573a117.923 117.923 0 005.02-27.605c4.95 3.507 9.19 7.986 12.35 13.154 3.94 6.429 6.23 13.711 7.48 21.103 2.79 16.37.43 32.985.77 49.463.14 6.745-.31 15.462 6.05 19.686 5.25 3.486 12.26 2.101 15.98-2.917 2.17-2.938 2.48-6.526 2.35-10.066-.16-4.308-.42-8.615-.64-12.923l-1.32-26.316c-.43-8.684-.87-17.368-1.3-26.055-.18-3.471-.06-7.14-.59-10.615.18-.893.34-1.792.47-2.688 1.1.365 2.19.74 3.27 1.13 9.09 3.261 17.99 7.626 24.71 14.508-.33 4.002-.64 8.004-.92 12.009-1.23 17.727-1.76 35.581.2 53.276.36 3.255.79 7.005 3.27 9.422 1.93 1.87 5.28 2.772 7.63 1.151 1.33-.921 1.97-2.458 2.3-3.987.42-2.036.62-4.134.91-6.193.59-4.359 1.15-8.726 1.54-13.112 1.41-15.761.43-32.572-8.18-46.361a43.358 43.358 0 00-5.2-6.735l.24-2.911c1.17-13.831 2.45-27.659 3.01-41.532.14-3.387.23-6.775.27-10.165.04-3.39.18-6.85-.15-10.23-.27-2.8-1.1-5.372-2.82-7.63-1.59-2.08-3.6-3.762-5.56-5.473-2.08-1.817-4.04-3.714-5.58-6.025-1.53-2.3-2.67-4.833-3.45-7.476-1.6-5.408-1.75-11.206-.79-16.742 1.11-6.448 3.53-12.581 6.36-18.456 1.42-2.947 2.94-5.852 4.49-8.732 1.38-2.572 2.83-5.147 4.68-7.416 3.47-4.26 9.21-7.737 14.87-5.75 3.08 1.085 4.83 3.891 6.47 6.517 1.66 2.644 3.25 5.333 4.72 8.085 5.9 11.097 9.86 23.881 7.15 36.477-1.3 6.053-4.28 11.143-8.02 16.005-3.56 4.622-7.36 9.124-9.39 14.667-2.16 5.887-2.38 12.284-2.23 18.486.16 6.91.58 13.816 1.04 20.708 1.88 27.964 5.21 55.887 4.87 83.954-.03 2.041-.07 4.079-.14 6.121-.15.144-.3.287-.44.434-2.34 2.389-4.7 5.606-5.34 8.948-.55 2.833.99 6.271 4.31 6.217.56-.009 1.17-.162 1.64-.488.72-.501.56-1.493.62-2.285.18-2.227.33-4.454.45-6.684.1-1.823.18-3.645.24-5.471 2.05-1.87 4.5-3.36 7.2-4.032 2.99-.743 5.98-.257 8.75 1.044 2.77 1.3 5.26 3.114 7.93 4.586a58.209 58.209 0 007.75 3.528c5.37 1.981 11.07 3.157 16.8 3.297 5.58.138 11.22-.752 16.39-2.904 5.12-2.126 9.56-5.474 13.28-9.533 7.67-8.36 12.13-18.888 18.38-28.219 6.75-10.081 17.38-20.459 30.56-19.188.96.099.96-1.4 0-1.493zm-463.392-6.289c-3.415 9.431-3.03 19.704-1.069 29.401 1.081 5.348 2.699 10.54 4.34 15.737 1.491 4.725 2.825 9.773 1.539 14.701-1.184 4.532-4.885 8.165-9.728 8.438-2.277.129-4.424-.651-5.424-2.803-.838-1.798-.835-3.918-.784-5.86.305-11.313.75-22.62 1.127-33.93.38-11.406.756-22.812 1.135-34.215l1.13-34.068c.183-5.572.44-11.148.542-16.72.087-4.814-.151-9.694-1.479-14.353a32.146 32.146 0 00-2.714-6.585l-.027-.04a.76.76 0 00-.189-.287c-2.277-2.182-4.458-4.509-6.141-7.185-.829-1.317-1.536-2.71-2.036-4.182-.552-1.622-.841-3.31-.949-5.015-.232-3.654.123-7.344.265-10.995a596.668 596.668 0 00.22-39.893c-.039-1.432-.286-3.222.602-4.469.22-.309.654-.653.988-.78.437-.161.786-.167 1.148.046 1.358.794.936 2.916.882 4.217a348.353 348.353 0 00.298 34.065c.088 1.54.06 3.175.482 4.673.355 1.26 1.16 2.467 2.527 2.743 1.696.342 3.223-.8 3.906-2.284.684-1.48.744-3.162.922-4.76.418-3.753.825-7.506 1.135-11.271.618-7.45.862-14.961.06-22.407-.162-1.514-.593-3.433.416-4.755.316-.413.795-.776 1.328-.809.624-.036 1.196.375 1.515.881.407.642.53 1.394.558 2.14.033.89-.025 1.787-.055 2.68l-.18 5.693-.723 22.767c-.093 2.901-.467 6.124.665 8.888.525 1.28 1.428 2.542 2.729 3.132.723.327 1.551.348 2.229-.105.596-.395.97-1.01 1.235-1.654.286-.69.418-1.421.56-2.15.178-.908.331-1.82.455-2.736.253-1.862.367-3.727.379-5.603.027-3.774-.069-7.551-.111-11.322l-.133-11.45c-.021-1.922-.045-3.844-.066-5.765-.009-.894-.033-1.79.045-2.68.048-.564.211-1.07.687-1.415.87-.626 2.379-.135 2.825.824.319.684.096 1.607.033 2.323l-.244 2.806-.244 2.8c-.075.908-.093 1.799.133 2.689.216.851.409 1.64.421 2.527.012.917-.069 1.831-.123 2.746-.22 3.789-.25 7.587-.193 11.382.057 3.774.159 7.557.349 11.325.085 1.678.335 3.387 1.41 4.742.952 1.202 2.449 1.852 3.976 1.487 1.484-.357 2.695-1.568 3.288-2.935.699-1.616.726-3.387.735-5.117l.136-22.899c.024-3.792.045-7.584.066-11.373.006-1.232-.168-2.781.443-3.879.572-1.03 1.927-1.04 2.728-.158 1.016 1.118.943 2.772.805 4.166-.178 1.778-.368 3.543-.428 5.33-.133 3.768.057 7.536.166 11.304.18 6.268.138 12.545-.051 18.813-.07 2.266-.157 4.532-.284 6.795a.646.646 0 00-.183.513c.021.498.045.995.063 1.493v.006l.003.036c.181 4.472.208 9.038-1.012 13.37-.669 2.367-1.741 4.625-3.322 6.525-1.596 1.922-3.557 3.528-4.96 5.612-3.088 4.577-2.127 10.719-1.934 15.908.229 6.157.464 12.317.689 18.474.359 9.757.693 19.518.964 29.281-4.843 4.002-8.373 9.559-10.496 15.428zm201.292-31.235c-1.63 1.967-3.06 4.104-4.31 6.268-3.75 6.46-6.37 13.544-10.7 19.677-3.74 5.311-8.62 9.817-14.13 13.273-11.29 7.083-24.93 9.505-37.96 6.583-13.11-2.941-24.64-10.573-34.5-19.428-5.13-4.607-9.89-9.61-14.41-14.808-4.62-5.309-9.33-10.914-11.95-17.518-1.32-3.321-2.02-6.843-1.85-10.42.19-4.055 1.43-8.015 3.03-11.723 2.53-5.873 6.02-11.346 10.2-16.187 8.14-9.407 18.88-16.568 30.73-20.432a64.02 64.02 0 0137.37-.707c12.11 3.447 23.24 10.278 31.76 19.52 8.86 9.61 14.48 21.745 16.18 34.67.49 3.717.67 7.479.54 11.232zm41.04-2.347a46.695 46.695 0 00-11.64-5.297c-6.53-1.942-13.86-2.739-20.21.225-2.91 1.361-5.44 3.352-7.65 5.678.05-6.241-.73-12.485-2.36-18.505-3.44-12.68-10.83-23.983-20.86-32.49-9.83-8.334-21.98-14.026-34.76-15.942-12.72-1.906-25.68.123-37.34 5.468-11.61 5.32-21.77 13.83-28.87 24.424-3.91 5.834-7.33 12.596-8.38 19.587-1.1 7.293 1.18 14.184 5.05 20.329 3.76 5.969 8.59 11.331 13.38 16.49 4.84 5.207 9.98 10.159 15.57 14.578 10.57 8.372 22.93 14.91 36.57 16.157 13.23 1.208 26.59-3.079 36.94-11.292 5.42-4.302 9.77-9.644 13.09-15.684 3.43-6.235 6.03-13.018 10.29-18.759-.6 8.436-2.75 16.766-6.42 24.389-5.76 11.987-15.36 22.257-27.38 28.174-13.16 6.478-28.27 6.385-42 1.748-13.71-4.628-25.41-13.534-35.23-23.957-5-5.321-9.56-11.046-13.84-16.963-3.62-5.006-7.33-10.303-13.93-11.197-11.23-1.519-25.26 9.212-33.52-2.925-8.577-12.602-3.62-29.569 2-42.263 10.44-23.577 26.34-45.672 47.71-60.567 10.57-7.368 22.44-12.839 35.05-15.63 12.5-2.763 25.55-2.98 38.18-.923 25.32 4.125 48.85 17.21 65.08 37.06 16.45 20.125 25.21 46.082 25.56 71.933.04 2.044.01 4.101-.08 6.154zm34.71 32.413c-.82 1.127-2.98 4.35-4.45 2.311-.96-1.324-.84-3.492-.91-5.044-.18-4.104.23-8.223 1.24-12.207.47-1.867 1.25-4.646 2.84-6.001 1.41.489 2.85.899 4.26 1.343.72.222 1.43.447 2.14.674.62 1.128.94 2.467 1.13 3.81-1.12 5.39-2.99 10.645-6.25 15.114zm.89-21.735c.38.009.78.078 1.22.227.36.12.68.267.97.438-.73-.213-1.47-.431-2.19-.665zm6.27.929c-.03.309-.08.617-.12.929l-.09-.03c-.29-.096-.6-.192-.9-.282-.98-1.465-2.4-2.595-4.25-2.943a4.63 4.63 0 00-3.29.566c-.9-.347-1.77-.737-2.6-1.187-3.58-1.921-5.54-5.404-7.26-8.93-3.47-7.152-5.48-14.937-6.55-22.787-1.09-7.998-1.25-16.1-1.1-24.158.15-8.231.21-16.622 1.29-24.793.56-4.263 1.74-8.274 3.05-12.356 1.25-3.912 2.49-7.854 4.35-11.526 1.66-3.262 3.77-6.343 5.85-9.344 2.17-3.111 4.49-6.106 6.91-9.029 1.12-1.36 2.21-2.772 3.36-4.11.91-1.048 2.24-2.04 3.64-1.18 2.13 1.319 1.9 5.165 1.52 7.263a.566.566 0 00-.04.23c.63 33.073-1.24 66.11-2.5 99.147-.31 8.159-.29 16.396-1.27 24.52zm33.21 23.513c7.01 10.018 9.64 22.398 9.84 34.443.11 7.011-.52 14.01-1.39 20.962-.43 3.42-.85 6.849-1.4 10.255-.22 1.373-.53 2.967-1.69 3.888-1.02.812-2.43.83-3.63.458-2.78-.86-4.02-3.6-4.58-6.235-.69-3.27-.86-6.708-1.12-10.036-.53-6.879-.72-13.78-.67-20.677.08-12.197.91-24.374 1.89-36.529a37.97 37.97 0 012.75 3.471zm16.65 70.915c-1.05.443-2.23-.087-2.93-.975-1.13-1.409-.67-3.423-.05-4.943.86-2.098 2.17-4.052 3.71-5.752-.16 3.894-.4 7.785-.73 11.67z" fill="#324C9A"/></svg>