<svg width="1440" height="281" viewBox="0 0 1440 281" fill="none" xmlns="http://www.w3.org/2000/svg">
<path d="M1439.28 161.491C1424.96 160.106 1413.5 171.827 1406.47 182.882C1398.98 194.654 1393.29 208.944 1380.75 216.414C1367.95 224.033 1351.48 222.103 1338.64 215.634C1335.26 213.932 1332.21 211.623 1328.78 210.044C1325.58 208.575 1322.15 208.077 1318.72 209.015C1316.37 209.657 1314.21 210.859 1312.31 212.379C1312.49 205.886 1312.46 199.387 1312.27 192.894C1311.77 174.843 1310.11 156.851 1308.67 138.856C1307.96 129.927 1307.3 120.988 1306.86 112.04C1306.45 103.757 1305.68 95.0344 1308 86.9559C1310.17 79.3839 1315.72 73.8444 1320.14 67.5494C1324.57 61.2364 1326.84 53.9672 1326.99 46.2784C1327.15 38.3497 1325.15 30.5799 1322.04 23.3287C1320.41 19.5307 1318.48 15.8646 1316.39 12.3005C1314.52 9.10203 1312.64 5.28907 1309.69 2.92096C1304.11 -1.56346 1296.18 1.26328 1291.71 5.8826C1289.15 8.52948 1287.27 11.7399 1285.53 14.9594C1283.56 18.6224 1281.63 22.3215 1279.9 26.1075C1273.93 39.153 1270.29 55.556 1279.03 68.3317C1281.01 71.2184 1283.6 73.4307 1286.2 75.7268C1288.89 78.095 1291.41 80.6669 1292.25 84.258C1292.72 86.2844 1292.73 88.3887 1292.75 90.4571C1292.77 92.6663 1292.76 94.8756 1292.73 97.0878C1292.67 101.584 1292.52 106.078 1292.29 110.568C1291.64 123.683 1290.42 136.755 1289.33 149.837C1286.62 147.184 1283.57 144.858 1280.27 142.873C1274.39 139.327 1267.93 136.809 1261.42 134.636C1262.51 126.656 1262.5 118.539 1262.8 110.505C1263.44 93.4097 1264.26 76.3204 1264.83 59.222C1265.38 42.6872 1265.68 26.1404 1265.37 9.59663C1265.9 6.46413 1265.79 0.714721 1261.6 0.268078C1259.09 0.00129058 1257.69 2.19854 1256.32 3.89518C1254.38 6.27828 1252.38 8.61042 1250.52 11.0505C1247.13 15.4719 1243.73 20.1662 1241.23 25.1542C1239.84 27.921 1238.78 30.8377 1237.81 33.7723C1236.78 36.8839 1235.67 40.0104 1234.88 43.1938C1233.31 49.5667 1233.06 56.1705 1232.8 62.6992C1232.55 68.9253 1232.32 75.1573 1232.39 81.3893C1232.52 93.5806 1233.73 106.018 1238.24 117.454C1240.28 122.621 1242.79 128.665 1247.91 131.488C1248.63 131.884 1249.37 132.223 1250.13 132.529C1249.45 133.245 1248.91 134.129 1248.51 135.061C1247.04 138.539 1246.42 142.511 1246.14 146.255C1245.99 148.254 1245.98 150.265 1246.12 152.265C1246.22 153.737 1246.28 155.328 1246.94 156.677C1247.46 157.738 1248.42 158.566 1249.67 158.533C1251.17 158.494 1252.3 157.238 1253.17 156.165C1256.16 152.49 1258.17 148.197 1259.52 143.695C1260.35 159.855 1261.13 176.018 1261.94 192.178C1262.16 196.434 1262.37 200.688 1262.58 204.945C1262.78 208.997 1263.22 213.116 1263.08 217.175C1262.95 220.865 1261.6 224.219 1258.48 226.375C1255.79 228.233 1252.44 228.716 1249.35 227.616C1241.48 224.81 1241.87 215.43 1241.71 208.551C1241.51 200.137 1242.02 191.731 1242.23 183.323C1242.57 169.012 1241.91 154.087 1235.56 140.961C1231.96 133.533 1226.44 127.196 1219.69 122.579C1219.87 118.677 1219.87 114.765 1219.66 110.856C1218.97 97.5344 1216.11 84.315 1211.12 71.9289C1206.18 59.6567 1199.2 48.2028 1190.29 38.3797C1181.45 28.6374 1170.73 20.6758 1158.9 14.8784C1147.12 9.09903 1134.31 5.42996 1121.24 4.126C1108.25 2.83103 1094.97 3.92816 1082.45 7.66917C1069.8 11.4492 1058.09 17.933 1047.79 26.1164C1037.32 34.4408 1028.32 44.5158 1020.73 55.487C1016.87 61.0745 1013.37 66.9109 1010.22 72.9271C1006.89 79.291 1003.82 85.8588 1001.61 92.6993C999.368 99.6867 998.022 107.148 999.028 114.483C999.917 120.949 1002.82 128.626 1009.02 131.785C1020.22 137.496 1033.5 124.759 1044.01 132.708C1046.9 134.894 1048.91 138.011 1051.01 140.904C1053.16 143.877 1055.39 146.803 1057.7 149.66C1062.33 155.37 1067.33 160.796 1072.85 165.661C1083.95 175.427 1097.32 182.861 1112.11 185.083C1119.26 186.159 1126.6 186 1133.63 184.255C1140.4 182.577 1146.77 179.45 1152.38 175.343C1163.31 167.331 1171.29 155.844 1175.4 143.002C1177.31 137.04 1178.4 130.814 1178.66 124.552C1180.72 122.151 1183.1 120.007 1185.89 118.473C1189.34 116.569 1193.2 115.91 1197.11 116.114C1204.26 116.488 1211.36 119.072 1217.39 122.843C1217.64 123.002 1217.89 123.167 1218.15 123.332C1216.79 148.485 1207.32 173.401 1190.24 192.121C1172.71 211.33 1147.95 224.009 1121.99 226.677C1096.26 229.324 1069.77 221.929 1048.63 207.247C1038.42 200.158 1029.46 191.282 1022.53 180.97C1017.56 171.368 1013.11 161.506 1009.2 151.425C1008.22 148.88 1007.27 146.32 1006.36 143.749C1005.62 141.692 1004.99 139.492 1003.68 137.711C1002.39 135.955 1000.55 134.897 998.368 134.723C996.119 134.543 993.851 135.271 991.851 136.24C990.441 136.923 989.11 137.726 987.857 138.629C987.686 132.537 987.487 126.446 987.276 120.358C987.059 114.138 986.83 107.921 986.595 101.701C986.478 98.5926 986.363 95.4841 986.246 92.3756C986.137 89.4619 985.912 86.5212 986.032 83.6076C986.149 80.8018 986.827 78.1879 988.622 75.9726C990.194 74.0302 992.14 72.4235 993.595 70.3761C996.459 66.3533 997.326 61.3263 997.504 56.5002C997.576 54.5248 997.534 52.5493 997.456 50.5769C997.456 50.5739 997.456 50.5709 997.456 50.5679C997.868 44.228 998.01 37.8641 998.016 31.5121C998.019 28.4096 997.983 25.3101 997.886 22.2106C997.769 18.4216 997.594 14.6266 997.775 10.8346C997.82 9.87541 997.889 8.91917 997.986 7.96593C998.07 7.15658 998.188 6.35022 998.23 5.53787C998.314 3.95513 998.028 2.30345 996.923 1.09242C995.881 -0.0496687 994.037 -0.397391 992.742 0.537862C991.61 1.35621 991.293 2.7501 991.212 4.06605C991.101 5.86161 991.173 7.68416 991.161 9.48272C991.149 11.3772 991.14 13.2747 991.128 15.1692C991.104 19.0091 991.083 22.8521 991.059 26.692C991.035 30.5319 991.013 34.3749 990.99 38.2148C990.98 39.9684 991.116 41.8089 990.797 43.5415C990.541 44.9294 989.866 46.3563 988.478 46.9348C987.188 47.4714 985.981 46.734 985.33 45.6129C984.487 44.162 984.58 42.3275 984.52 40.7088C984.378 36.8898 984.243 33.0679 984.213 29.2459C984.198 27.3365 984.21 25.424 984.261 23.5145C984.312 21.617 984.442 19.7285 984.529 17.8311C984.571 16.9078 984.55 15.9785 984.372 15.0673C984.291 14.6506 984.159 14.2489 984.056 13.8382C983.951 13.4066 983.924 12.9719 983.936 12.5283C983.987 10.6518 984.24 8.7633 984.403 6.89279C984.544 5.26809 984.978 3.34362 983.604 2.10561C982.52 1.12539 980.834 0.723714 979.518 1.46113C978.882 1.81484 978.409 2.39338 978.147 3.06185C977.843 3.83823 977.873 4.77348 977.867 5.59483C977.855 7.49231 977.903 9.39279 977.927 11.2903C978.014 18.9642 978.15 26.638 978.189 34.3119C978.198 36.1944 978.159 38.0769 977.951 39.9474C977.849 40.8737 977.707 41.7909 977.542 42.7082C977.397 43.5056 977.274 44.3269 977.024 45.0973C976.87 45.5739 976.617 46.1285 976.229 46.3803C976.057 46.4912 975.849 46.5182 975.596 46.4312C975.289 46.3233 975.003 46.1105 974.762 45.8947C973.819 45.0583 973.349 43.8863 973.099 42.6782C972.828 41.3653 972.819 40.0044 972.852 38.6704C972.9 36.7849 972.973 34.9024 973.03 33.0169C973.154 29.171 973.274 25.3281 973.397 21.4821C973.521 17.6362 973.641 13.7933 973.765 9.94735C973.822 8.14579 973.982 6.31125 973.903 4.50969C973.831 2.85501 973.247 1.04746 971.608 0.322035C970.103 -0.343434 968.563 0.372994 967.666 1.64997C966.636 3.1158 966.838 5.0013 967.027 6.67696C967.452 10.439 967.612 14.2279 967.582 18.0139C967.524 25.6128 966.729 33.1788 965.889 40.7238C965.726 42.1716 965.726 43.8623 964.979 45.1572C964.639 45.7448 964.118 46.2724 963.419 46.3893C962.853 46.4822 962.371 46.2544 962.037 45.8617C961.314 45.0134 961.248 43.6075 961.178 42.5044C961.055 40.5739 960.949 38.6404 960.859 36.71C960.501 29.0781 960.396 21.4372 960.537 13.7993C960.573 11.9138 960.624 10.0313 960.688 8.14579C960.721 7.18056 960.76 6.21233 960.802 5.2471C960.841 4.32984 960.88 3.44254 960.528 2.57624C959.983 1.2363 958.781 0.301051 957.29 0.537862C956.019 0.738702 955.004 1.7429 954.531 2.89098C953.881 4.47072 954.095 6.28428 954.14 7.94795C954.191 9.8904 954.236 11.8328 954.269 13.7753C954.336 17.6092 954.363 21.4462 954.357 25.2801C954.342 32.951 954.176 40.6219 953.863 48.2867C953.715 51.9378 953.345 55.6459 953.727 59.291C954.08 62.6573 955.239 65.7778 957.097 68.6075C958.799 71.2005 960.926 73.4876 963.157 75.6309C963.166 75.6549 963.175 75.6789 963.187 75.7029C965.555 80.0344 966.714 84.8096 967.052 89.7077C967.413 94.9445 967.045 100.226 966.871 105.466C966.494 116.821 966.118 128.176 965.741 139.534C965.362 150.94 964.985 162.346 964.606 173.749C964.229 185.104 963.853 196.458 963.477 207.816C963.389 210.463 963.232 213.116 963.232 215.766C963.232 217.744 963.407 219.825 964.323 221.614C966.488 225.85 972.102 225.541 975.792 223.665C979.951 221.548 982.132 217.283 982.614 212.798C983.162 207.706 981.499 202.726 979.963 197.942C976.662 187.655 974.03 176.869 975.03 165.991C975.819 157.412 979.216 148.794 985.43 142.663C985.755 142.343 986.089 142.031 986.429 141.725C986.481 143.575 986.532 145.427 986.574 147.277C986.869 159.594 987.038 171.914 986.981 184.237C986.954 190.397 986.869 196.557 986.719 202.714C986.643 205.763 986.553 208.812 986.445 211.86C986.351 214.423 986.27 217.025 985.565 219.51C984.875 221.941 983.496 224.018 981.403 225.472C979.352 226.893 976.963 227.724 974.581 228.407C969.666 229.816 964.603 230.697 959.501 231.054C949.366 231.761 939.12 230.442 929.491 227.217C924.642 225.592 919.962 223.479 915.55 220.898C910.709 218.068 906.279 214.636 902.017 211.015C893.855 204.081 886.028 196.803 877.185 190.706C868.812 184.933 859.557 180.092 849.51 178.038C847.109 177.547 844.672 177.223 842.227 177.058C842.155 177.052 842.091 177.058 842.031 177.07C815.997 178.44 802.043 202.031 789.719 215.241C771.079 235.224 754.984 252.481 705.168 248.596C686.007 247.1 657.193 243.227 623.828 238.74C552.981 229.213 459.374 216.629 383.576 216.629C338.85 216.629 300.314 221.015 276.346 232.999C202.002 270.167 -66.3712 255.967 -167.402 250.622C-179.82 249.966 -189.627 249.447 -196.533 249.153C-232.723 247.616 -351.259 256.495 -465.891 265.08C-554.99 271.755 -639.149 278.059 -678.483 279.01C-766.531 281.135 -874.269 265.233 -930.94 249.186C-943.634 245.592 -965.476 243.77 -995.871 243.77C-996.085 243.77 -996.299 243.77 -996.513 243.77C-1021.05 243.791 -1051.15 244.981 -1085.99 247.307C-1145.28 251.267 -1198.47 257.229 -1199 257.289L-1198.8 259.076C-1198.27 259.016 -1145.12 253.056 -1085.86 249.099C-1007.5 243.869 -954.097 244.495 -931.427 250.913C-902.243 259.174 -860.821 267.079 -817.783 272.595C-786.818 276.564 -741.771 281.003 -695.175 281C-689.609 281 -684.019 280.937 -678.432 280.802C-639.05 279.852 -554.869 273.545 -465.747 266.869C-351.168 258.287 -232.687 249.408 -196.602 250.946C-189.705 251.24 -179.902 251.758 -167.49 252.415C-117.313 255.071 -23.9196 260.011 65.0554 259.564C173.764 259.019 245.126 250.622 277.165 234.603C341.257 202.562 511.162 225.403 623.593 240.52C656.985 245.011 685.823 248.887 705.036 250.385C755.719 254.342 772.094 236.788 791.053 216.462C803.284 203.35 818.485 179.513 842.236 178.554C852.687 179.258 862.505 183.278 871.357 188.689C880.507 194.285 888.63 201.285 896.659 208.338C900.981 212.136 905.352 215.904 910.089 219.183C914.339 222.124 918.893 224.6 923.66 226.605C933.06 230.556 943.243 232.64 953.447 232.733C958.546 232.777 963.651 232.322 968.66 231.36C971.208 230.871 973.744 230.262 976.216 229.483C978.505 228.761 980.779 227.837 982.701 226.381C986.836 223.245 987.679 218.281 987.902 213.407C988.179 207.277 988.297 201.135 988.393 194.999C988.589 182.562 988.526 170.119 988.309 157.681C988.209 151.95 988.071 146.219 987.914 140.487C988.7 139.873 989.52 139.3 990.372 138.776C992.269 137.609 994.348 136.584 996.579 136.276C998.919 135.952 1001.14 136.68 1002.52 138.647C1003.83 140.517 1004.43 142.822 1005.19 144.948C1008.83 155.062 1013 164.987 1017.69 174.66C1018.82 176.977 1019.97 179.276 1021.15 181.563C1021.17 181.617 1021.2 181.674 1021.24 181.731C1021.27 181.794 1021.31 181.845 1021.35 181.89C1028.66 192.741 1038.17 202.001 1049.02 209.333C1060.05 216.785 1072.46 222.262 1085.39 225.463C1098.37 228.674 1111.91 229.573 1125.17 227.804C1138.34 226.051 1151.13 221.785 1162.78 215.451C1174.48 209.093 1185.06 200.625 1193.68 190.496C1203.25 179.252 1210.22 165.988 1214.57 151.923C1217.34 142.951 1219.02 133.674 1219.59 124.318C1224.54 127.825 1228.78 132.304 1231.94 137.472C1235.88 143.901 1238.17 151.183 1239.42 158.575C1242.21 174.945 1239.85 191.56 1240.19 208.038C1240.33 214.783 1239.88 223.5 1246.24 227.724C1251.49 231.21 1258.5 229.825 1262.22 224.807C1264.39 221.869 1264.7 218.281 1264.57 214.741C1264.41 210.433 1264.15 206.126 1263.93 201.818C1263.49 193.047 1263.05 184.276 1262.61 175.502C1262.18 166.818 1261.74 158.134 1261.31 149.447C1261.13 145.976 1261.25 142.307 1260.72 138.832C1260.9 137.939 1261.06 137.04 1261.19 136.144C1262.29 136.509 1263.38 136.884 1264.46 137.274C1273.55 140.535 1282.45 144.9 1289.17 151.782C1288.84 155.784 1288.53 159.786 1288.25 163.791C1287.02 181.518 1286.49 199.372 1288.45 217.067C1288.81 220.322 1289.24 224.072 1291.72 226.489C1293.65 228.359 1297 229.261 1299.35 227.64C1300.68 226.719 1301.32 225.182 1301.65 223.653C1302.07 221.617 1302.27 219.519 1302.56 217.46C1303.15 213.101 1303.71 208.734 1304.1 204.348C1305.51 188.587 1304.53 171.776 1295.92 157.987C1294.4 155.556 1292.66 153.314 1290.72 151.252C1290.8 150.28 1290.88 149.312 1290.96 148.341C1292.13 134.51 1293.41 120.682 1293.97 106.809C1294.11 103.422 1294.2 100.034 1294.24 96.6441C1294.28 93.2539 1294.42 89.7946 1294.09 86.4133C1293.82 83.6135 1292.99 81.0416 1291.27 78.7844C1289.68 76.7041 1287.67 75.0224 1285.71 73.3108C1283.63 71.4942 1281.67 69.5967 1280.13 67.2856C1278.6 64.9864 1277.46 62.4534 1276.68 59.8096C1275.08 54.4019 1274.93 48.6045 1275.89 43.0679C1277 36.6201 1279.42 30.487 1282.25 24.6116C1283.67 21.665 1285.19 18.7603 1286.74 15.8796C1288.12 13.3077 1289.57 10.7327 1291.42 8.46354C1294.89 4.20394 1300.63 0.726712 1306.29 2.71413C1309.37 3.79926 1311.12 6.60502 1312.76 9.23092C1314.42 11.8748 1316.01 14.5637 1317.48 17.3155C1323.38 28.4126 1327.34 41.1974 1324.63 53.7934C1323.33 59.8455 1320.35 64.9355 1316.61 69.7976C1313.05 74.4199 1309.25 78.9223 1307.22 84.4649C1305.06 90.3522 1304.84 96.7491 1304.99 102.951C1305.15 109.861 1305.57 116.767 1306.03 123.659C1307.91 151.623 1311.24 179.546 1310.9 207.613C1310.87 209.654 1310.83 211.692 1310.76 213.734C1310.61 213.878 1310.46 214.021 1310.32 214.168C1307.98 216.557 1305.62 219.774 1304.98 223.116C1304.43 225.949 1305.97 229.387 1309.29 229.333C1309.85 229.324 1310.46 229.171 1310.93 228.845C1311.65 228.344 1311.49 227.352 1311.55 226.56C1311.73 224.333 1311.88 222.106 1312 219.876C1312.1 218.053 1312.18 216.231 1312.24 214.405C1314.29 212.535 1316.74 211.045 1319.44 210.373C1322.43 209.63 1325.42 210.116 1328.19 211.417C1330.96 212.717 1333.45 214.531 1336.12 216.003C1338.62 217.37 1341.21 218.548 1343.87 219.531C1349.24 221.512 1354.94 222.688 1360.67 222.828C1366.25 222.966 1371.89 222.076 1377.06 219.924C1382.18 217.798 1386.62 214.45 1390.34 210.391C1398.01 202.031 1402.47 191.503 1408.72 182.172C1415.47 172.091 1426.1 161.713 1439.28 162.984C1440.24 163.083 1440.24 161.584 1439.28 161.491ZM975.888 155.202C972.473 164.633 972.858 174.906 974.819 184.603C975.9 189.951 977.518 195.143 979.159 200.34C980.65 205.065 981.984 210.113 980.698 215.041C979.514 219.573 975.813 223.206 970.97 223.479C968.693 223.608 966.546 222.828 965.546 220.676C964.708 218.878 964.711 216.758 964.762 214.816C965.067 203.503 965.512 192.196 965.889 180.886C966.269 169.48 966.645 158.074 967.024 146.671C967.401 135.316 967.777 123.961 968.154 112.603C968.337 107.031 968.594 101.455 968.696 95.8828C968.783 91.0686 968.545 86.1885 967.217 81.5302C966.563 79.24 965.645 77.0338 964.503 74.9445C964.494 74.9295 964.485 74.9175 964.476 74.9055C964.44 74.8066 964.38 74.7077 964.287 74.6177C962.01 72.4355 959.829 70.1093 958.146 67.4325C957.317 66.1165 956.61 64.7226 956.11 63.2508C955.558 61.6291 955.269 59.9414 955.161 58.2358C954.929 54.5817 955.284 50.8917 955.426 47.2406C955.573 43.4576 955.685 39.6746 955.76 35.8886C955.911 28.2687 955.917 20.6458 955.778 13.0259C955.742 11.1344 955.7 9.23992 955.646 7.34843C955.607 5.91557 955.36 4.126 956.248 2.87899C956.468 2.57024 956.902 2.22552 957.236 2.09962C957.673 1.93774 958.022 1.93175 958.384 2.14458C959.742 2.93895 959.32 5.06125 959.266 6.36221C958.962 13.9462 958.905 21.5391 959.097 29.126C959.191 32.894 959.347 36.662 959.564 40.427C959.652 41.9678 959.624 43.6015 960.046 45.1003C960.401 46.3593 961.206 47.5673 962.573 47.8431C964.269 48.1848 965.796 47.0427 966.479 45.5589C967.163 44.0781 967.223 42.3965 967.401 40.7987C967.819 37.0457 968.226 33.2927 968.536 29.5277C969.154 22.0787 969.398 14.5667 968.596 7.12061C968.434 5.60682 968.003 3.68835 969.012 2.3664C969.328 1.95273 969.807 1.59002 970.34 1.55705C970.964 1.52108 971.536 1.93175 971.855 2.43835C972.262 3.07983 972.385 3.83223 972.413 4.57864C972.446 5.46893 972.388 6.36521 972.358 7.2585C972.298 9.15598 972.238 11.0535 972.178 12.951C971.937 20.5409 971.696 28.1308 971.455 35.7178C971.362 38.6195 970.988 41.8419 972.12 44.6057C972.645 45.8857 973.548 47.1477 974.849 47.7382C975.572 48.0649 976.4 48.0859 977.078 47.6333C977.674 47.2376 978.048 46.6231 978.313 45.9786C978.599 45.2891 978.731 44.5577 978.873 43.8293C979.051 42.921 979.204 42.0098 979.328 41.0925C979.581 39.231 979.695 37.3665 979.707 35.49C979.734 31.716 979.638 27.939 979.596 24.168C979.551 20.352 979.508 16.5331 979.463 12.7171C979.442 10.7957 979.418 8.87421 979.397 6.95274C979.388 6.05945 979.364 5.16317 979.442 4.27288C979.49 3.70933 979.653 3.20274 980.129 2.85801C980.999 2.23151 982.508 2.72312 982.954 3.68235C983.273 4.36581 983.05 5.28907 982.987 6.0055C982.906 6.94075 982.824 7.876 982.743 8.81126C982.662 9.74351 982.581 10.6788 982.499 11.611C982.424 12.5193 982.406 13.4096 982.632 14.2999C982.848 15.1512 983.041 15.9396 983.053 16.8269C983.065 17.7441 982.984 18.6584 982.93 19.5727C982.71 23.3616 982.68 27.1596 982.737 30.9546C982.794 34.7286 982.896 38.5116 983.086 42.2795C983.171 43.9582 983.421 45.6668 984.496 47.0218C985.448 48.2238 986.945 48.8743 988.472 48.5086C989.956 48.1519 991.167 46.9408 991.76 45.5739C992.459 43.9582 992.486 42.1866 992.495 40.457C992.541 32.8251 992.586 25.1932 992.631 17.5583C992.655 13.7663 992.676 9.97433 992.697 6.18535C992.703 4.95334 992.529 3.40357 993.14 2.30645C993.712 1.27527 995.067 1.26628 995.868 2.14758C996.884 3.26569 996.811 4.92036 996.673 6.31425C996.495 8.09183 996.305 9.85742 996.245 11.644C996.112 15.412 996.302 19.18 996.411 22.948C996.591 29.216 996.549 35.493 996.36 41.761C996.29 44.0272 996.203 46.2933 996.076 48.5565C995.956 48.6764 995.881 48.8443 995.893 49.0691C995.914 49.5667 995.938 50.0643 995.956 50.5619C995.956 50.5649 995.956 50.5649 995.956 50.5679C995.956 50.5799 995.959 50.5919 995.959 50.6039C996.14 55.0763 996.167 59.6417 994.947 63.9732C994.278 66.3413 993.206 68.5985 991.625 70.499C990.029 72.4205 988.068 74.0272 986.665 76.1105C983.577 80.6879 984.538 86.83 984.731 92.0188C984.96 98.1759 985.195 104.336 985.42 110.493C985.779 120.25 986.113 130.011 986.384 139.774C981.541 143.776 978.011 149.333 975.888 155.202ZM1177.18 123.967C1175.55 125.934 1174.12 128.071 1172.87 130.235C1169.12 136.695 1166.5 143.779 1162.17 149.912C1158.43 155.223 1153.55 159.729 1148.04 163.185C1136.75 170.268 1123.11 172.69 1110.08 169.768C1096.97 166.827 1085.44 159.195 1075.58 150.34C1070.45 145.733 1065.69 140.73 1061.17 135.532C1056.55 130.223 1051.84 124.618 1049.22 118.014C1047.9 114.693 1047.2 111.171 1047.37 107.594C1047.56 103.539 1048.8 99.5788 1050.4 95.8708C1052.93 89.9984 1056.42 84.5248 1060.6 79.6837C1068.74 70.2772 1079.48 63.1159 1091.33 59.252C1103.45 55.3041 1116.43 55.0583 1128.7 58.5446C1140.81 61.9918 1151.94 68.8233 1160.46 78.065C1169.32 87.6753 1174.94 99.8096 1176.64 112.735C1177.13 116.452 1177.31 120.214 1177.18 123.967ZM1218.22 121.62C1214.63 119.348 1210.71 117.552 1206.58 116.323C1200.05 114.381 1192.72 113.584 1186.37 116.548C1183.46 117.909 1180.93 119.9 1178.72 122.226C1178.77 115.985 1177.99 109.741 1176.36 103.721C1172.92 91.0416 1165.53 79.7376 1155.5 71.2304C1145.67 62.8971 1133.52 57.2046 1120.74 55.2892C1108.02 53.3827 1095.06 55.4121 1083.4 60.7568C1071.79 66.0776 1061.63 74.5878 1054.53 85.1813C1050.62 91.0146 1047.2 97.7772 1046.15 104.768C1045.05 112.061 1047.33 118.952 1051.2 125.097C1054.96 131.066 1059.79 136.428 1064.58 141.587C1069.42 146.794 1074.56 151.746 1080.15 156.165C1090.72 164.537 1103.08 171.075 1116.72 172.322C1129.95 173.53 1143.31 169.243 1153.66 161.03C1159.08 156.728 1163.43 151.386 1166.75 145.346C1170.18 139.111 1172.78 132.328 1177.04 126.587C1176.44 135.023 1174.29 143.353 1170.62 150.976C1164.86 162.963 1155.26 173.233 1143.24 179.15C1130.08 185.628 1114.97 185.535 1101.24 180.898C1087.53 176.27 1075.83 167.364 1066.01 156.941C1061.01 151.62 1056.45 145.895 1052.17 139.978C1048.55 134.972 1044.84 129.675 1038.24 128.781C1027.01 127.262 1012.98 137.993 1004.72 125.856C996.143 113.254 1001.1 96.2874 1006.72 83.5926C1017.16 60.0164 1033.06 37.921 1054.43 23.0259C1065 15.6578 1076.87 10.1872 1089.48 7.39639C1101.98 4.63259 1115.03 4.41677 1127.66 6.47312C1152.98 10.5978 1176.51 23.6824 1192.74 43.5325C1209.19 63.6585 1217.95 89.6148 1218.3 115.466C1218.34 117.51 1218.31 119.567 1218.22 121.62ZM1252.93 154.033C1252.11 155.16 1249.95 158.383 1248.48 156.344C1247.52 155.02 1247.64 152.852 1247.57 151.3C1247.39 147.196 1247.8 143.077 1248.81 139.093C1249.28 137.226 1250.06 134.447 1251.65 133.092C1253.06 133.581 1254.5 133.991 1255.91 134.435C1256.63 134.657 1257.34 134.882 1258.05 135.109C1258.67 136.237 1258.99 137.576 1259.18 138.919C1258.06 144.309 1256.19 149.564 1252.93 154.033ZM1253.82 132.298C1254.2 132.307 1254.6 132.376 1255.04 132.525C1255.4 132.645 1255.72 132.792 1256.01 132.963C1255.28 132.75 1254.54 132.532 1253.82 132.298ZM1260.09 133.227C1260.06 133.536 1260.01 133.844 1259.97 134.156C1259.94 134.147 1259.91 134.135 1259.88 134.126C1259.59 134.03 1259.28 133.934 1258.98 133.844C1258 132.379 1256.58 131.249 1254.73 130.901C1253.48 130.664 1252.38 130.916 1251.44 131.467C1250.54 131.12 1249.67 130.73 1248.84 130.28C1245.26 128.359 1243.3 124.876 1241.58 121.35C1238.11 114.198 1236.1 106.413 1235.03 98.5626C1233.94 90.565 1233.78 82.4625 1233.93 74.4049C1234.08 66.1735 1234.14 57.7832 1235.22 49.6117C1235.78 45.3491 1236.96 41.3383 1238.27 37.2556C1239.52 33.3437 1240.76 29.4018 1242.62 25.7298C1244.28 22.4684 1246.39 19.3868 1248.47 16.3862C1250.64 13.2747 1252.96 10.2801 1255.38 7.35742C1256.5 5.9965 1257.59 4.58463 1258.74 3.2477C1259.65 2.19854 1260.98 1.20633 1262.38 2.06664C1264.51 3.38559 1264.28 7.23152 1263.9 9.32984C1263.87 9.39879 1263.86 9.47373 1263.86 9.56066C1264.49 42.6333 1262.62 75.6699 1261.36 108.707C1261.05 116.866 1261.07 125.103 1260.09 133.227ZM1293.3 156.74C1300.31 166.758 1302.94 179.138 1303.14 191.183C1303.25 198.194 1302.62 205.193 1301.75 212.145C1301.32 215.565 1300.9 218.994 1300.35 222.4C1300.13 223.773 1299.82 225.367 1298.66 226.288C1297.64 227.1 1296.23 227.118 1295.03 226.746C1292.25 225.886 1291.01 223.146 1290.45 220.511C1289.76 217.241 1289.59 213.803 1289.33 210.475C1288.8 203.596 1288.61 196.695 1288.66 189.798C1288.74 177.601 1289.57 165.424 1290.55 153.269C1291.53 154.363 1292.44 155.52 1293.3 156.74ZM1309.95 227.655C1308.9 228.098 1307.72 227.568 1307.02 226.68C1305.89 225.271 1306.35 223.257 1306.97 221.737C1307.83 219.639 1309.14 217.685 1310.68 215.985C1310.52 219.879 1310.28 223.77 1309.95 227.655Z" fill="#324C9A"/>
</svg>
